<mxfile host="app.diagrams.net" modified="2023-10-06T18:42:12.801Z" agent="Mozilla/5.0 (X11; Linux x86_64) AppleWebKit/537.36 (KHTML, like Gecko) Chrome/117.0.0.0 Safari/537.36 Edg/117.0.2045.40" etag="JfCAgWfjTczbyNqH6bbd" version="22.0.3" type="github">
  <diagram name="PÃ¡gina-1" id="b_-ZVtRHfa4kn2Ab-ZPH">
    <mxGraphModel dx="1386" dy="827" grid="1" gridSize="10" guides="1" tooltips="1" connect="1" arrows="1" fold="1" page="1" pageScale="1" pageWidth="827" pageHeight="1169" math="0" shadow="0">
      <root>
        <mxCell id="0" />
        <mxCell id="1" parent="0" />
      </root>
    </mxGraphModel>
  </diagram>
</mxfile>
